<svg width="62" height="25" viewBox="0 0 62 25" fill="none" xmlns="http://www.w3.org/2000/svg">
<path d="M10.3251 24.125C8.34176 24.125 6.61676 23.7667 5.1501 23.05C3.68343 22.3167 2.55843 21.2833 1.7751 19.95C0.991765 18.6167 0.600098 17.0667 0.600098 15.3C0.600098 12.85 1.05843 10.675 1.9751 8.775C2.90843 6.875 4.16676 5.40833 5.7501 4.375C7.33343 3.325 9.09176 2.8 11.0251 2.8C12.8251 2.8 14.1918 3.26667 15.1251 4.2C16.0584 5.11667 16.5251 6.33333 16.5251 7.85C16.5251 8.86667 16.3418 9.68333 15.9751 10.3C15.6251 10.9167 15.1168 11.225 14.4501 11.225C13.9834 11.225 13.6168 11.1167 13.3501 10.9C13.0834 10.6833 12.9501 10.3667 12.9501 9.95C12.9501 9.8 12.9834 9.525 13.0501 9.125C13.1501 8.625 13.2001 8.225 13.2001 7.925C13.2001 6.40833 12.3918 5.65 10.7751 5.65C9.6751 5.65 8.6251 6.00833 7.6251 6.725C6.6251 7.44167 5.81676 8.5 5.2001 9.9C4.58343 11.2833 4.2751 12.9333 4.2751 14.85C4.2751 16.85 4.83343 18.4 5.9501 19.5C7.06677 20.5833 8.71676 21.125 10.9001 21.125C11.9834 21.125 13.0751 20.9917 14.1751 20.725C15.2918 20.4417 16.5251 20.0167 17.8751 19.45C18.1251 19.35 18.3334 19.3 18.5001 19.3C18.7668 19.3 18.9668 19.4 19.1001 19.6C19.2334 19.8 19.3001 20.0583 19.3001 20.375C19.3001 21.3917 18.7501 22.1417 17.6501 22.625C16.4668 23.1417 15.2334 23.525 13.9501 23.775C12.6834 24.0083 11.4751 24.125 10.3251 24.125Z" fill="#B9B9B9"/>
<path d="M20.4138 24.125C19.3804 24.125 18.5554 23.75 17.9388 23C17.3221 22.25 17.0138 21.2667 17.0138 20.05C17.0138 18.7167 17.3221 17.4583 17.9388 16.275C18.5554 15.075 19.3721 14.1167 20.3888 13.4C21.4221 12.6667 22.5138 12.3 23.6638 12.3C24.0304 12.3 24.2721 12.375 24.3888 12.525C24.5221 12.6583 24.6304 12.9083 24.7138 13.275C25.0638 13.2083 25.4304 13.175 25.8138 13.175C26.6304 13.175 27.0388 13.4667 27.0388 14.05C27.0388 14.4 26.9138 15.2333 26.6638 16.55C26.2804 18.4667 26.0888 19.8 26.0888 20.55C26.0888 20.8 26.1471 21 26.2638 21.15C26.3971 21.3 26.5638 21.375 26.7638 21.375C27.0804 21.375 27.4638 21.175 27.9138 20.775C28.3638 20.3583 28.9721 19.6917 29.7388 18.775C29.9388 18.5417 30.1638 18.425 30.4138 18.425C30.6304 18.425 30.7971 18.525 30.9138 18.725C31.0471 18.925 31.1138 19.2 31.1138 19.55C31.1138 20.2167 30.9554 20.7333 30.6388 21.1C29.9554 21.95 29.2304 22.6667 28.4638 23.25C27.6971 23.8333 26.9554 24.125 26.2388 24.125C25.6888 24.125 25.1804 23.9417 24.7138 23.575C24.2638 23.1917 23.9221 22.675 23.6888 22.025C22.8221 23.425 21.7304 24.125 20.4138 24.125ZM21.3138 21.6C21.6804 21.6 22.0304 21.3833 22.3638 20.95C22.6971 20.5167 22.9388 19.9417 23.0888 19.225L24.0138 14.625C23.3138 14.6417 22.6638 14.9083 22.0638 15.425C21.4804 15.925 21.0138 16.5917 20.6638 17.425C20.3138 18.2583 20.1388 19.1417 20.1388 20.075C20.1388 20.5917 20.2388 20.975 20.4388 21.225C20.6554 21.475 20.9471 21.6 21.3138 21.6Z" fill="#B9B9B9"/>
<path d="M42.9569 18.425C43.1736 18.425 43.3403 18.525 43.4569 18.725C43.5903 18.925 43.6569 19.2 43.6569 19.55C43.6569 20.2167 43.4986 20.7333 43.1819 21.1C42.4153 21.9833 41.6236 22.7083 40.8069 23.275C40.0069 23.8417 39.0903 24.125 38.0569 24.125C37.2069 24.125 36.5653 23.8833 36.1319 23.4C35.6986 22.9 35.4819 22.1833 35.4819 21.25C35.4819 20.7833 35.5986 19.95 35.8319 18.75C36.0486 17.7 36.1569 16.975 36.1569 16.575C36.1569 16.3083 36.0653 16.175 35.8819 16.175C35.6653 16.175 35.3569 16.4583 34.9569 17.025C34.5569 17.575 34.1569 18.3083 33.7569 19.225C33.3569 20.1417 33.0319 21.1083 32.7819 22.125C32.4653 23.4583 31.6819 24.125 30.4319 24.125C29.9319 24.125 29.5986 23.95 29.4319 23.6C29.2819 23.2333 29.2069 22.5833 29.2069 21.65C29.2069 21.1167 29.2153 20.6917 29.2319 20.375L29.2569 18.375C29.2569 15.8083 29.5153 13.1333 30.0319 10.35C30.5653 7.56667 31.3403 5.23333 32.3569 3.35C33.3903 1.45 34.6236 0.5 36.0569 0.5C36.8236 0.5 37.4403 0.833334 37.9069 1.5C38.3903 2.15 38.6319 3 38.6319 4.05C38.6319 5.73333 38.1403 7.48333 37.1569 9.3C36.1736 11.1 34.5736 13.2083 32.3569 15.625C32.3069 16.4917 32.2819 17.3833 32.2819 18.3C32.8319 16.8833 33.4403 15.7333 34.1069 14.85C34.7903 13.95 35.4569 13.3083 36.1069 12.925C36.7736 12.5417 37.3819 12.35 37.9319 12.35C39.0153 12.35 39.5569 12.8917 39.5569 13.975C39.5569 14.625 39.3736 15.8 39.0069 17.5C38.6903 18.95 38.5319 19.9083 38.5319 20.375C38.5319 21.0417 38.7736 21.375 39.2569 21.375C39.5903 21.375 39.9819 21.175 40.4319 20.775C40.8986 20.3583 41.5153 19.6917 42.2819 18.775C42.4819 18.5417 42.7069 18.425 42.9569 18.425ZM35.5319 2.975C35.2319 2.975 34.8986 3.40834 34.5319 4.275C34.1653 5.125 33.8069 6.28334 33.4569 7.75C33.1236 9.2 32.8486 10.7833 32.6319 12.5C33.6653 11.2833 34.5153 9.95833 35.1819 8.525C35.8653 7.09167 36.2069 5.79167 36.2069 4.625C36.2069 4.09167 36.1486 3.68333 36.0319 3.4C35.9153 3.11667 35.7486 2.975 35.5319 2.975Z" fill="#B9B9B9"/>
<path d="M52.7808 18.425C52.9974 18.425 53.1641 18.525 53.2808 18.725C53.4141 18.925 53.4808 19.2 53.4808 19.55C53.4808 20.2167 53.3224 20.7333 53.0058 21.1C52.3891 21.85 51.5141 22.5417 50.3808 23.175C49.2641 23.8083 48.0641 24.125 46.7808 24.125C45.0308 24.125 43.6724 23.65 42.7058 22.7C41.7391 21.75 41.2558 20.45 41.2558 18.8C41.2558 17.65 41.4974 16.5833 41.9808 15.6C42.4641 14.6 43.1308 13.8083 43.9808 13.225C44.8474 12.6417 45.8224 12.35 46.9058 12.35C47.8724 12.35 48.6474 12.6417 49.2308 13.225C49.8141 13.7917 50.1058 14.5667 50.1058 15.55C50.1058 16.7 49.6891 17.6917 48.8558 18.525C48.0391 19.3417 46.6474 19.9917 44.6808 20.475C45.0974 21.2417 45.8891 21.625 47.0558 21.625C47.8058 21.625 48.6558 21.3667 49.6058 20.85C50.5724 20.3167 51.4058 19.625 52.1058 18.775C52.3058 18.5417 52.5308 18.425 52.7808 18.425ZM46.4808 14.8C45.8641 14.8 45.3391 15.1583 44.9058 15.875C44.4891 16.5917 44.2808 17.4583 44.2808 18.475V18.525C45.2641 18.2917 46.0391 17.9417 46.6058 17.475C47.1724 17.0083 47.4558 16.4667 47.4558 15.85C47.4558 15.5333 47.3641 15.2833 47.1808 15.1C47.0141 14.9 46.7808 14.8 46.4808 14.8Z" fill="#B9B9B9"/>
<path d="M60.3952 19.175C60.6119 19.175 60.7786 19.275 60.8952 19.475C61.0286 19.675 61.0952 19.95 61.0952 20.3C61.0952 20.9 60.9535 21.4167 60.6702 21.85C60.2035 22.5667 59.5869 23.125 58.8202 23.525C58.0702 23.925 57.1702 24.125 56.1202 24.125C54.5202 24.125 53.2786 23.65 52.3952 22.7C51.5119 21.7333 51.0702 20.4333 51.0702 18.8C51.0702 17.65 51.3119 16.5833 51.7952 15.6C52.2785 14.6 52.9452 13.8083 53.7952 13.225C54.6619 12.6417 55.6369 12.35 56.7202 12.35C57.6869 12.35 58.4619 12.6417 59.0452 13.225C59.6285 13.7917 59.9202 14.5667 59.9202 15.55C59.9202 16.7 59.5035 17.6917 58.6702 18.525C57.8535 19.3417 56.4535 19.9917 54.4702 20.475C54.8702 21.2417 55.5452 21.625 56.4952 21.625C57.1785 21.625 57.7369 21.4667 58.1702 21.15C58.6202 20.8333 59.1369 20.3 59.7202 19.55C59.9202 19.3 60.1452 19.175 60.3952 19.175ZM56.2952 14.8C55.6785 14.8 55.1535 15.1583 54.7202 15.875C54.3035 16.5917 54.0952 17.4583 54.0952 18.475V18.525C55.0785 18.2917 55.8535 17.9417 56.4202 17.475C56.9869 17.0083 57.2702 16.4667 57.2702 15.85C57.2702 15.5333 57.1785 15.2833 56.9952 15.1C56.8285 14.9 56.5952 14.8 56.2952 14.8Z" fill="#B9B9B9"/>
</svg>
