<svg xmlns="http://www.w3.org/2000/svg" xmlns:xlink="http://www.w3.org/1999/xlink" preserveAspectRatio="xMidYMid" width="23" height="30" viewBox="0 0 23 30">
  <defs>
    <style>

      .cls-2 {
        fill: #1275b9;
      }
    </style>
  </defs>
  <path d="M17.298,29.975 C17.298,29.975 4.767,29.975 4.767,29.975 C2.136,29.975 -0.005,27.751 -0.005,25.017 C-0.005,25.017 -0.005,4.944 -0.005,4.944 C-0.005,2.210 2.136,-0.014 4.767,-0.014 C4.767,-0.014 17.298,-0.014 17.298,-0.014 C19.929,-0.014 22.069,2.210 22.069,4.944 C22.069,4.944 22.069,25.017 22.069,25.017 C22.069,27.751 19.929,29.975 17.298,29.975 ZM20.135,4.944 C20.135,3.318 18.862,1.996 17.298,1.996 C17.298,1.996 4.767,1.996 4.767,1.996 C3.202,1.996 1.930,3.318 1.930,4.944 C1.930,4.944 1.930,25.017 1.930,25.017 C1.930,26.643 3.202,27.965 4.767,27.965 C4.767,27.965 17.298,27.965 17.298,27.965 C18.862,27.965 20.135,26.643 20.135,25.017 C20.135,25.017 20.135,4.944 20.135,4.944 ZM12.000,5.431 C12.000,5.431 10.065,5.431 10.065,5.431 C9.531,5.431 9.098,4.981 9.098,4.426 C9.098,3.870 9.531,3.420 10.065,3.420 C10.065,3.420 12.000,3.420 12.000,3.420 C12.534,3.420 12.967,3.870 12.967,4.426 C12.967,4.981 12.534,5.431 12.000,5.431 ZM11.032,24.808 C11.566,24.808 12.000,25.258 12.000,25.813 C12.000,26.368 11.566,26.818 11.032,26.818 C10.499,26.818 10.065,26.368 10.065,25.813 C10.065,25.258 10.499,24.808 11.032,24.808 Z" id="path-1" class="cls-2" fill-rule="evenodd"/>
</svg>
